<svg width="73" height="19" viewBox="0 0 73 19" fill="none" xmlns="http://www.w3.org/2000/svg">
<path d="M11.2983 0.545454H14.9886V11.8807C14.9886 13.1534 14.6847 14.267 14.0767 15.2216C13.4744 16.1761 12.6307 16.9205 11.5455 17.4545C10.4602 17.983 9.19602 18.2472 7.75284 18.2472C6.30398 18.2472 5.03693 17.983 3.9517 17.4545C2.86648 16.9205 2.02273 16.1761 1.42045 15.2216C0.818182 14.267 0.517045 13.1534 0.517045 11.8807V0.545454H4.20739V11.5653C4.20739 12.2301 4.35227 12.821 4.64205 13.3381C4.9375 13.8551 5.35227 14.2614 5.88636 14.5568C6.42045 14.8523 7.04261 15 7.75284 15C8.46875 15 9.09091 14.8523 9.61932 14.5568C10.1534 14.2614 10.5653 13.8551 10.8551 13.3381C11.1506 12.821 11.2983 12.2301 11.2983 11.5653V0.545454ZM21.5874 10.4318V18H17.9567V4.90909H21.4169V7.21875H21.5703C21.8601 6.45739 22.3459 5.85511 23.0277 5.41193C23.7095 4.96307 24.5362 4.73864 25.5078 4.73864C26.4169 4.73864 27.2095 4.9375 27.8857 5.33523C28.5618 5.73295 29.0874 6.30114 29.4624 7.03977C29.8374 7.77273 30.0249 8.64773 30.0249 9.66477V18H26.3942V10.3125C26.3999 9.51136 26.1953 8.88636 25.7805 8.4375C25.3658 7.98295 24.7947 7.75568 24.0675 7.75568C23.5788 7.75568 23.147 7.8608 22.772 8.07102C22.4027 8.28125 22.1129 8.58807 21.9027 8.99148C21.6982 9.3892 21.593 9.86932 21.5874 10.4318ZM39.8494 4.90909V7.63636H31.9659V4.90909H39.8494ZM33.7557 1.77273H37.3864V13.9773C37.3864 14.3125 37.4375 14.5739 37.5398 14.7614C37.642 14.9432 37.7841 15.071 37.9659 15.1449C38.1534 15.2187 38.3693 15.2557 38.6136 15.2557C38.7841 15.2557 38.9545 15.2415 39.125 15.2131C39.2955 15.179 39.4261 15.1534 39.517 15.1364L40.0881 17.8381C39.9063 17.8949 39.6506 17.9602 39.321 18.0341C38.9915 18.1136 38.5909 18.1619 38.1193 18.179C37.2443 18.2131 36.4773 18.0966 35.8182 17.8295C35.1648 17.5625 34.6563 17.1477 34.2926 16.5852C33.929 16.0227 33.75 15.3125 33.7557 14.4545V1.77273ZM47.9886 18.2557C46.6648 18.2557 45.5199 17.9744 44.554 17.4119C43.5938 16.8437 42.8523 16.054 42.3295 15.0426C41.8068 14.0256 41.5455 12.8466 41.5455 11.5057C41.5455 10.1534 41.8068 8.97159 42.3295 7.96023C42.8523 6.94318 43.5938 6.15341 44.554 5.59091C45.5199 5.02273 46.6648 4.73864 47.9886 4.73864C49.3125 4.73864 50.4545 5.02273 51.4148 5.59091C52.3807 6.15341 53.125 6.94318 53.6477 7.96023C54.1705 8.97159 54.4318 10.1534 54.4318 11.5057C54.4318 12.8466 54.1705 14.0256 53.6477 15.0426C53.125 16.054 52.3807 16.8437 51.4148 17.4119C50.4545 17.9744 49.3125 18.2557 47.9886 18.2557ZM48.0057 15.4432C48.608 15.4432 49.1108 15.2727 49.5142 14.9318C49.9176 14.5852 50.2216 14.1136 50.4261 13.517C50.6364 12.9205 50.7415 12.2415 50.7415 11.4801C50.7415 10.7188 50.6364 10.0398 50.4261 9.44318C50.2216 8.84659 49.9176 8.375 49.5142 8.02841C49.1108 7.68182 48.608 7.50852 48.0057 7.50852C47.3977 7.50852 46.8864 7.68182 46.4716 8.02841C46.0625 8.375 45.7528 8.84659 45.5426 9.44318C45.3381 10.0398 45.2358 10.7188 45.2358 11.4801C45.2358 12.2415 45.3381 12.9205 45.5426 13.517C45.7528 14.1136 46.0625 14.5852 46.4716 14.9318C46.8864 15.2727 47.3977 15.4432 48.0057 15.4432Z" fill="black"/>
<path d="M72.2614 6.65625H68.5284C68.4602 6.1733 68.321 5.74432 68.1108 5.36932C67.9006 4.98864 67.6307 4.66477 67.3011 4.39773C66.9716 4.13068 66.5909 3.92614 66.1591 3.78409C65.733 3.64205 65.2699 3.57102 64.7699 3.57102C63.8665 3.57102 63.0795 3.79545 62.4091 4.24432C61.7386 4.6875 61.2188 5.33523 60.8494 6.1875C60.4801 7.03409 60.2955 8.0625 60.2955 9.27273C60.2955 10.517 60.4801 11.5625 60.8494 12.4091C61.2244 13.2557 61.7472 13.8949 62.4176 14.3267C63.0881 14.7585 63.8636 14.9744 64.7443 14.9744C65.2386 14.9744 65.696 14.9091 66.1165 14.7784C66.5426 14.6477 66.9205 14.4574 67.25 14.2074C67.5795 13.9517 67.8523 13.642 68.0682 13.2784C68.2898 12.9148 68.4432 12.5 68.5284 12.0341L72.2614 12.0511C72.1648 12.8523 71.9233 13.625 71.5369 14.3693C71.1563 15.108 70.642 15.7699 69.9943 16.3551C69.3523 16.9347 68.5852 17.3949 67.6932 17.7358C66.8068 18.071 65.804 18.2386 64.6847 18.2386C63.1278 18.2386 61.7358 17.8864 60.5085 17.1818C59.2869 16.4773 58.321 15.4574 57.6108 14.1222C56.9062 12.7869 56.554 11.1705 56.554 9.27273C56.554 7.36932 56.9119 5.75 57.6278 4.41477C58.3438 3.07955 59.3153 2.0625 60.5426 1.36364C61.7699 0.659091 63.1506 0.306818 64.6847 0.306818C65.696 0.306818 66.6335 0.448863 67.4972 0.732954C68.3665 1.01705 69.1364 1.43182 69.8068 1.97727C70.4773 2.51704 71.0227 3.17898 71.4432 3.96307C71.8693 4.74716 72.142 5.64489 72.2614 6.65625Z" fill="#FFBD00"/>
</svg>
